<?xml version="1.0" encoding="utf-8"?>
<!-- Generator: Adobe Illustrator 22.1.0, SVG Export Plug-In . SVG Version: 6.00 Build 0)  -->
<svg version="1.1" id="Layer_1" xmlns="http://www.w3.org/2000/svg" xmlns:xlink="http://www.w3.org/1999/xlink" x="0px" y="0px"
	 viewBox="0 0 400 400" style="enable-background:new 0 0 400 400;" xml:space="preserve">
<style type="text/css">
	.st0{fill:none;}
	.st1{fill:#C5CDD1;}
</style>
<g>
	<path class="st0" d="M275.083,24.983h-150.06c-6.879,0-12.478,5.599-12.478,12.478v324.917c0,6.879,5.599,12.478,12.478,12.478
		h150.06c6.879,0,12.478-5.599,12.478-12.478V37.542C287.562,30.663,281.962,24.983,275.083,24.983z M200.053,362.378
		c-13.758,0-24.957-11.199-24.957-24.957c0-13.758,11.199-24.957,24.957-24.957c13.758,0,24.957,11.199,24.957,24.957
		C225.01,351.26,213.812,362.378,200.053,362.378z M225.09,62.498h-49.993c-6.879,0-12.478-5.599-12.478-12.478
		s5.599-12.478,12.478-12.478h49.993c6.879,0,12.478,5.599,12.478,12.478S231.969,62.498,225.09,62.498z"/>
	<path class="st1" d="M275.083,0.027h-150.06c-20.717,0-37.515,16.798-37.515,37.515v324.917c0,20.717,16.798,37.515,37.515,37.515
		h150.06c20.717,0,37.515-16.798,37.515-37.515V37.542C312.598,16.824,295.801,0.027,275.083,0.027z M200.053,362.458
		c-13.758,0-24.957-11.199-24.957-24.957c0-13.758,11.198-24.957,24.957-24.957s24.957,11.199,24.957,24.957
		C225.01,351.26,213.812,362.458,200.053,362.458z M225.09,62.498h-49.993c-6.879,0-12.478-5.599-12.478-12.478
		s5.599-12.478,12.478-12.478h49.993c6.879,0,12.478,5.599,12.478,12.478S231.969,62.498,225.09,62.498z"/>
</g>
</svg>
